<mxfile host="app.diagrams.net" modified="2021-10-13T05:48:55.106Z" agent="5.0 (Windows NT 10.0; Win64; x64) AppleWebKit/537.36 (KHTML, like Gecko) Chrome/94.0.4606.81 Safari/537.36" etag="xrOCbyjLTpzVpmwXNVMC" version="15.5.0" type="github">
  <diagram id="-f8vIAS79yj2O2WknAAl" name="Page-1">
    <mxGraphModel dx="2462" dy="1122" grid="0" gridSize="10" guides="1" tooltips="1" connect="1" arrows="1" fold="1" page="0" pageScale="1" pageWidth="827" pageHeight="1169" math="0" shadow="0">
      <root>
        <mxCell id="0" />
        <mxCell id="1" parent="0" />
        <mxCell id="FULdnFq1xOe49q41No1p-2" value="&lt;h1&gt;2050网站架构&lt;/h1&gt;" style="text;html=1;strokeColor=none;fillColor=none;spacing=5;spacingTop=-20;whiteSpace=wrap;overflow=hidden;rounded=0;" vertex="1" parent="1">
          <mxGeometry x="320" y="210" width="190" height="50" as="geometry" />
        </mxCell>
        <mxCell id="FULdnFq1xOe49q41No1p-3" value="&lt;font style=&quot;font-size: 16px&quot;&gt;&lt;b&gt;活动系统&lt;/b&gt;&lt;/font&gt;&lt;br&gt;&lt;br&gt;发起活动&lt;br&gt;管理活动&lt;br&gt;报名" style="rounded=1;whiteSpace=wrap;html=1;fillColor=#fff2cc;strokeColor=#d6b656;" vertex="1" parent="1">
          <mxGeometry x="-10" y="310" width="120" height="120" as="geometry" />
        </mxCell>
        <mxCell id="FULdnFq1xOe49q41No1p-4" value="&lt;font style=&quot;font-size: 16px&quot;&gt;&lt;b&gt;投稿系统&lt;/b&gt;&lt;/font&gt;&lt;br&gt;&lt;br&gt;上传内容&lt;br&gt;管理内容&lt;br&gt;模板管理&lt;br&gt;微信机器人？" style="rounded=1;whiteSpace=wrap;html=1;fillColor=#fff2cc;strokeColor=#d6b656;" vertex="1" parent="1">
          <mxGeometry x="170" y="310" width="120" height="120" as="geometry" />
        </mxCell>
        <mxCell id="FULdnFq1xOe49q41No1p-5" value="&lt;font style=&quot;font-size: 16px&quot;&gt;&lt;b&gt;视频系统&lt;/b&gt;&lt;/font&gt;&lt;br&gt;&lt;br&gt;上传视频&lt;br&gt;管理视频&lt;br&gt;分享" style="rounded=1;whiteSpace=wrap;html=1;fillColor=#fff2cc;strokeColor=#d6b656;" vertex="1" parent="1">
          <mxGeometry x="340" y="310" width="120" height="120" as="geometry" />
        </mxCell>
        <mxCell id="FULdnFq1xOe49q41No1p-6" value="&lt;font style=&quot;font-size: 16px&quot;&gt;&lt;b&gt;投票系统&lt;/b&gt;&lt;/font&gt;&lt;br&gt;&lt;br&gt;发起投票&lt;br&gt;统计投票&lt;br&gt;管理投票" style="rounded=1;whiteSpace=wrap;html=1;fillColor=#fff2cc;strokeColor=#d6b656;" vertex="1" parent="1">
          <mxGeometry x="510" y="310" width="120" height="120" as="geometry" />
        </mxCell>
        <mxCell id="FULdnFq1xOe49q41No1p-7" value="&lt;span style=&quot;font-size: 16px&quot;&gt;&lt;b&gt;……&lt;/b&gt;&lt;/span&gt;" style="rounded=1;whiteSpace=wrap;html=1;fillColor=#fff2cc;strokeColor=#d6b656;" vertex="1" parent="1">
          <mxGeometry x="680" y="310" width="120" height="120" as="geometry" />
        </mxCell>
        <mxCell id="FULdnFq1xOe49q41No1p-16" value="" style="edgeStyle=orthogonalEdgeStyle;rounded=0;orthogonalLoop=1;jettySize=auto;html=1;fontSize=12;endArrow=none;endFill=0;" edge="1" parent="1" source="FULdnFq1xOe49q41No1p-8" target="FULdnFq1xOe49q41No1p-9">
          <mxGeometry relative="1" as="geometry" />
        </mxCell>
        <mxCell id="FULdnFq1xOe49q41No1p-18" value="" style="edgeStyle=orthogonalEdgeStyle;rounded=0;orthogonalLoop=1;jettySize=auto;html=1;fontSize=12;endArrow=classic;endFill=1;" edge="1" parent="1" source="FULdnFq1xOe49q41No1p-8" target="FULdnFq1xOe49q41No1p-17">
          <mxGeometry relative="1" as="geometry" />
        </mxCell>
        <mxCell id="FULdnFq1xOe49q41No1p-8" value="用户系统" style="rounded=1;whiteSpace=wrap;html=1;fontSize=16;fillColor=#dae8fc;strokeColor=#6c8ebf;" vertex="1" parent="1">
          <mxGeometry x="340" y="550" width="120" height="60" as="geometry" />
        </mxCell>
        <mxCell id="FULdnFq1xOe49q41No1p-15" value="" style="edgeStyle=orthogonalEdgeStyle;rounded=0;orthogonalLoop=1;jettySize=auto;html=1;fontSize=12;" edge="1" parent="1" source="FULdnFq1xOe49q41No1p-9" target="FULdnFq1xOe49q41No1p-10">
          <mxGeometry relative="1" as="geometry" />
        </mxCell>
        <mxCell id="FULdnFq1xOe49q41No1p-9" value="PASS系统" style="rounded=1;whiteSpace=wrap;html=1;fontSize=16;fillColor=#dae8fc;strokeColor=#6c8ebf;" vertex="1" parent="1">
          <mxGeometry x="340" y="610" width="120" height="60" as="geometry" />
        </mxCell>
        <mxCell id="FULdnFq1xOe49q41No1p-13" style="edgeStyle=orthogonalEdgeStyle;rounded=0;orthogonalLoop=1;jettySize=auto;html=1;entryX=0.95;entryY=0.024;entryDx=0;entryDy=0;entryPerimeter=0;fontSize=12;" edge="1" parent="1" source="FULdnFq1xOe49q41No1p-10" target="FULdnFq1xOe49q41No1p-11">
          <mxGeometry relative="1" as="geometry" />
        </mxCell>
        <mxCell id="FULdnFq1xOe49q41No1p-14" style="edgeStyle=orthogonalEdgeStyle;rounded=0;orthogonalLoop=1;jettySize=auto;html=1;entryX=0.25;entryY=0;entryDx=0;entryDy=0;fontSize=12;" edge="1" parent="1" source="FULdnFq1xOe49q41No1p-10" target="FULdnFq1xOe49q41No1p-12">
          <mxGeometry relative="1" as="geometry" />
        </mxCell>
        <mxCell id="FULdnFq1xOe49q41No1p-10" value="订单系统" style="rounded=1;whiteSpace=wrap;html=1;fontSize=16;fillColor=#dae8fc;strokeColor=#6c8ebf;" vertex="1" parent="1">
          <mxGeometry x="340" y="700" width="120" height="60" as="geometry" />
        </mxCell>
        <mxCell id="FULdnFq1xOe49q41No1p-11" value="&lt;b&gt;物料&lt;/b&gt;&lt;br&gt;&lt;br style=&quot;font-size: 15px&quot;&gt;&lt;font style=&quot;font-size: 12px&quot;&gt;金属PASS制作；&lt;br&gt;帐篷采购；&lt;br&gt;奖牌制作；&lt;br&gt;海报制作；&lt;br&gt;……&lt;/font&gt;" style="rounded=1;whiteSpace=wrap;html=1;fontSize=16;fillColor=#e1d5e7;strokeColor=#9673a6;" vertex="1" parent="1">
          <mxGeometry x="180" y="830" width="120" height="170" as="geometry" />
        </mxCell>
        <mxCell id="FULdnFq1xOe49q41No1p-12" value="签到系统" style="rounded=1;whiteSpace=wrap;html=1;fontSize=16;fillColor=#e1d5e7;strokeColor=#9673a6;" vertex="1" parent="1">
          <mxGeometry x="470" y="830" width="120" height="60" as="geometry" />
        </mxCell>
        <mxCell id="FULdnFq1xOe49q41No1p-17" value="每个用户在不同系统的不同角色：系统管理员/发起人/召集人/活动参与者/内容贡献者……" style="rounded=1;whiteSpace=wrap;html=1;fontSize=16;fillColor=#dae8fc;strokeColor=#6c8ebf;" vertex="1" parent="1">
          <mxGeometry x="-5" y="450" width="810" height="60" as="geometry" />
        </mxCell>
      </root>
    </mxGraphModel>
  </diagram>
</mxfile>
